# xmcd
#
# Track frame offsets:
#	150
#	24568
#	53148
#	78782
#	110538
#
# Disc length: 1947 seconds
#
# Revision: 0
# Processed by: cddbd v1.5.2PL0 Copyright (c) Steve Scherf et al.
# Submitted via: EasyCDDAExtractor 15.0.0.1
#
DISCID=32079905
DTITLE=Azoto - Disco Fizz
DYEAR=1979
DGENRE=Electronic,Funk/Soul
TTITLE0=Fire Fly
TTITLE1=Anytime Or Place
TTITLE2=Soft Emotion
TTITLE3=San Salvador
TTITLE4=Exalt-Exalt
EXTD=
EXTT0=
EXTT1=
EXTT2=
EXTT3=
EXTT4=
PLAYORDER=
